<svg width="92" height="14" viewBox="0 0 92 14" fill="none" xmlns="http://www.w3.org/2000/svg">
<path d="M0.000110984 7.00001V6.09091L7.31829 2.36364V3.81819L1.70466 6.52273L1.75011 6.43182V6.6591L1.70466 6.56819L7.31829 9.27273V10.7273L0.000110984 7.00001ZM82.2743 4.76837e-06L78.5243 13.9318H77.297L81.047 4.76837e-06H82.2743ZM91.5683 8.09091L84.2501 11.8182V10.3636L89.8637 7.6591L89.8183 7.75001V7.52273L89.8637 7.61364L84.2501 4.9091V3.45455L91.5683 7.18182V8.09091Z" fill="#1F6ED5"/>
<path d="M14.797 0.54546H16.2061V8.86364C16.2061 9.60607 16.0697 10.2367 15.797 10.7557C15.5243 11.2746 15.1398 11.6686 14.6436 11.9375C14.1474 12.2064 13.5621 12.3409 12.8879 12.3409C12.2515 12.3409 11.6852 12.2254 11.189 11.9943C10.6928 11.7595 10.3027 11.4261 10.0186 10.9943C9.73449 10.5625 9.59244 10.0492 9.59244 9.45455H10.9788C10.9788 9.7841 11.0602 10.072 11.2231 10.3182C11.3898 10.5606 11.6171 10.75 11.9049 10.8864C12.1928 11.0227 12.5205 11.0909 12.8879 11.0909C13.2932 11.0909 13.6379 11.0057 13.922 10.8352C14.2061 10.6648 14.422 10.4148 14.5697 10.0852C14.7212 9.7519 14.797 9.3447 14.797 8.86364V0.54546ZM24.3481 8.61364V3.45455H25.689V12.1818H24.3481V10.7046H24.2572C24.0527 11.1477 23.7345 11.5246 23.3027 11.8352C22.8708 12.1421 22.3254 12.2955 21.6663 12.2955C21.1208 12.2955 20.636 12.1761 20.2118 11.9375C19.7875 11.6951 19.4542 11.3314 19.2118 10.8466C18.9693 10.358 18.8481 9.74243 18.8481 9.00001V3.45455H20.189V8.9091C20.189 9.54546 20.3671 10.053 20.7231 10.4318C21.083 10.8106 21.5413 11 22.0981 11C22.4315 11 22.7705 10.9148 23.1152 10.7443C23.4637 10.5739 23.7553 10.3125 23.9902 9.96023C24.2288 9.60796 24.3481 9.1591 24.3481 8.61364ZM29.4859 0.54546V12.1818H28.145V0.54546H29.4859ZM35.601 12.3636C34.7601 12.3636 34.0347 12.178 33.4248 11.8068C32.8188 11.4318 32.351 10.9091 32.0214 10.2386C31.6957 9.5644 31.5328 8.78031 31.5328 7.88637C31.5328 6.99243 31.6957 6.20455 32.0214 5.52273C32.351 4.83713 32.8093 4.30304 33.3964 3.92046C33.9873 3.5341 34.6767 3.34091 35.4646 3.34091C35.9191 3.34091 36.368 3.41667 36.8112 3.56819C37.2544 3.7197 37.6578 3.96591 38.0214 4.30682C38.3851 4.64394 38.6748 5.09091 38.8907 5.64773C39.1066 6.20455 39.2146 6.89016 39.2146 7.70455V8.27273H32.4873V7.11364H37.851C37.851 6.62122 37.7525 6.18182 37.5555 5.79546C37.3623 5.4091 37.0858 5.10417 36.726 4.88069C36.3699 4.6572 35.9494 4.54546 35.4646 4.54546C34.9305 4.54546 34.4684 4.67804 34.0782 4.94319C33.6919 5.20455 33.3945 5.54546 33.1862 5.96591C32.9779 6.38637 32.8737 6.83713 32.8737 7.31819V8.09091C32.8737 8.75001 32.9873 9.30872 33.2146 9.76705C33.4457 10.2216 33.7657 10.5682 34.1748 10.8068C34.5839 11.0417 35.0593 11.1591 35.601 11.1591C35.9532 11.1591 36.2714 11.1099 36.5555 11.0114C36.8434 10.9091 37.0915 10.7576 37.2998 10.5568C37.5082 10.3523 37.6691 10.0985 37.7828 9.79546L39.0782 10.1591C38.9419 10.5985 38.7127 10.9849 38.3907 11.3182C38.0688 11.6477 37.671 11.9053 37.1976 12.0909C36.7241 12.2727 36.1919 12.3636 35.601 12.3636ZM47.4362 5.4091L46.2316 5.75001C46.1559 5.54925 46.0441 5.35417 45.8964 5.16478C45.7525 4.9716 45.5555 4.81251 45.3055 4.68751C45.0555 4.56251 44.7354 4.50001 44.3453 4.50001C43.8112 4.50001 43.3661 4.62311 43.0101 4.86932C42.6578 5.11175 42.4816 5.42046 42.4816 5.79546C42.4816 6.12879 42.6029 6.39205 42.8453 6.58523C43.0877 6.77841 43.4665 6.9394 43.9816 7.06819L45.2771 7.38637C46.0574 7.57576 46.6388 7.86554 47.0214 8.25569C47.404 8.64205 47.5953 9.14016 47.5953 9.75001C47.5953 10.25 47.4513 10.697 47.1635 11.0909C46.8794 11.4849 46.4816 11.7955 45.9703 12.0227C45.4589 12.25 44.8642 12.3636 44.1862 12.3636C43.296 12.3636 42.5593 12.1705 41.976 11.7841C41.3926 11.3977 41.0233 10.8333 40.868 10.0909L42.1407 9.77273C42.2619 10.2424 42.4911 10.5947 42.8282 10.8296C43.1691 11.0644 43.6142 11.1818 44.1635 11.1818C44.7885 11.1818 45.2847 11.0492 45.6521 10.7841C46.0233 10.5152 46.2089 10.1932 46.2089 9.81819C46.2089 9.51516 46.1029 9.26137 45.8907 9.05682C45.6786 8.84849 45.3529 8.69319 44.9135 8.59091L43.4589 8.25001C42.6597 8.06061 42.0726 7.76705 41.6976 7.36932C41.3263 6.96781 41.1407 6.46591 41.1407 5.86364C41.1407 5.37122 41.279 4.93561 41.5555 4.55682C41.8358 4.17804 42.2165 3.88069 42.6976 3.66478C43.1824 3.44887 43.7316 3.34091 44.3453 3.34091C45.2089 3.34091 45.8869 3.53031 46.3794 3.9091C46.8756 4.28788 47.2279 4.78788 47.4362 5.4091ZM53.3865 12.1818H49.7956V0.54546H53.5456C54.6744 0.54546 55.6403 0.778414 56.4433 1.24432C57.2463 1.70644 57.8619 2.37122 58.2899 3.23864C58.7179 4.10228 58.9319 5.13637 58.9319 6.34091C58.9319 7.55304 58.716 8.5966 58.2842 9.4716C57.8524 10.3428 57.2236 11.0133 56.3978 11.483C55.5721 11.9489 54.5683 12.1818 53.3865 12.1818ZM51.2047 10.9318H53.2956C54.2577 10.9318 55.055 10.7462 55.6876 10.375C56.3202 10.0038 56.7918 9.47538 57.1024 8.78978C57.413 8.10417 57.5683 7.28788 57.5683 6.34091C57.5683 5.40152 57.4149 4.59281 57.1081 3.91478C56.8012 3.23296 56.3429 2.71023 55.7331 2.3466C55.1232 1.97917 54.3637 1.79546 53.4547 1.79546H51.2047V10.9318ZM64.7728 12.3636C63.9319 12.3636 63.2066 12.178 62.5967 11.8068C61.9906 11.4318 61.5228 10.9091 61.1933 10.2386C60.8675 9.5644 60.7047 8.78031 60.7047 7.88637C60.7047 6.99243 60.8675 6.20455 61.1933 5.52273C61.5228 4.83713 61.9812 4.30304 62.5683 3.92046C63.1592 3.5341 63.8486 3.34091 64.6365 3.34091C65.091 3.34091 65.5399 3.41667 65.9831 3.56819C66.4262 3.7197 66.8297 3.96591 67.1933 4.30682C67.5569 4.64394 67.8467 5.09091 68.0626 5.64773C68.2785 6.20455 68.3865 6.89016 68.3865 7.70455V8.27273H61.6592V7.11364H67.0228C67.0228 6.62122 66.9244 6.18182 66.7274 5.79546C66.5342 5.4091 66.2577 5.10417 65.8978 4.88069C65.5418 4.6572 65.1213 4.54546 64.6365 4.54546C64.1024 4.54546 63.6403 4.67804 63.2501 4.94319C62.8637 5.20455 62.5664 5.54546 62.3581 5.96591C62.1497 6.38637 62.0456 6.83713 62.0456 7.31819V8.09091C62.0456 8.75001 62.1592 9.30872 62.3865 9.76705C62.6175 10.2216 62.9376 10.5682 63.3467 10.8068C63.7558 11.0417 64.2312 11.1591 64.7728 11.1591C65.1251 11.1591 65.4433 11.1099 65.7274 11.0114C66.0153 10.9091 66.2634 10.7576 66.4717 10.5568C66.68 10.3523 66.841 10.0985 66.9547 9.79546L68.2501 10.1591C68.1137 10.5985 67.8846 10.9849 67.5626 11.3182C67.2406 11.6477 66.8429 11.9053 66.3694 12.0909C65.8959 12.2727 65.3637 12.3636 64.7728 12.3636ZM77.297 3.45455L74.0697 12.1818H72.7061L69.4788 3.45455H70.9333L73.3424 10.4091H73.4333L75.8424 3.45455H77.297Z" fill="black"/>
</svg>
